<svg xmlns="http://www.w3.org/2000/svg" width="14" height="14" fill="#fff"  fill-rule="evenodd" xmlns:v="https://vecta.io/nano"><path d="M6.642.706c.21-.164.506-.164.716 0l5.25 4.083c.142.11.225.28.225.46v6.417a1.75 1.75 0 0 1-1.75 1.75H2.917a1.75 1.75 0 0 1-1.75-1.75V5.25c0-.18.083-.35.225-.46L6.642.706zm-4.31 4.83v6.13c0 .155.06.303.17.412s.258.17.412.17h8.167c.155 0 .303-.062.413-.17s.17-.258.17-.412v-6.13L7 1.906l-4.667 3.63z"/><path d="M4.667 7c0-.322.26-.583.583-.583h3.5c.322 0 .583.26.583.583v5.833c0 .322-.26.583-.583.583s-.583-.26-.583-.583v-5.25H5.833v5.25c0 .322-.26.583-.583.583s-.583-.26-.583-.583V7z"/></svg>