<svg xmlns="http://www.w3.org/2000/svg" width="20" height="20" fill="none"  xmlns:v="https://vecta.io/nano"><path d="M10 20a9.81 9.81 0 0 1-3.887-.791c-1.237-.527-2.3-1.237-3.193-2.13S1.318 15.124.79 13.887A9.81 9.81 0 0 1 0 10a9.81 9.81 0 0 1 .791-3.887c.527-1.237 1.237-2.3 2.13-3.193S4.876 1.318 6.113.79A9.81 9.81 0 0 1 10 0a9.81 9.81 0 0 1 3.887.791c1.237.527 2.3 1.237 3.193 2.13s1.6 1.956 2.13 3.193A9.81 9.81 0 0 1 20 10a9.81 9.81 0 0 1-.791 3.887c-.527 1.237-1.237 2.3-2.13 3.193s-1.956 1.6-3.193 2.13A9.81 9.81 0 0 1 10 20zm5-13.75c0-.34-.12-.632-.36-.88A1.19 1.19 0 0 0 13.75 5h-7.5a1.2 1.2 0 0 0-.879.371A1.2 1.2 0 0 0 5 6.25V7.5h2.227c.755-.833 1.68-1.25 2.773-1.25s2.018.417 2.773 1.25H15V6.25zM7.5 10c0 .7.244 1.28.732 1.768S9.3 12.5 10 12.5s1.28-.244 1.768-.732S12.5 10.7 12.5 10s-.244-1.28-.732-1.768S10.7 7.5 10 7.5s-1.28.244-1.768.732S7.5 9.3 7.5 10zM15 8.75h-1.484c.156.43.234.846.234 1.25 0 1.042-.365 1.927-1.094 2.656S11.042 13.75 10 13.75s-1.927-.365-2.656-1.094S6.25 11.042 6.25 10c0-.404.078-.82.234-1.25H5v5c0 .352.12.648.36.89s.537.36.89.36h7.5c.352 0 .648-.12.89-.36s.36-.537.36-.89v-5z" fill="#bdbdbd"/></svg>