<svg xmlns="http://www.w3.org/2000/svg" width="14" height="14" fill="#fff"  fill-rule="evenodd" xmlns:v="https://vecta.io/nano"><path d="M7 1.167c-1.238 0-2.425.492-3.3 1.367s-1.367 2.062-1.367 3.3c0 1.807 1.176 3.56 2.465 4.922a17.18 17.18 0 0 0 1.745 1.595L7 12.7l.457-.35a17.18 17.18 0 0 0 1.745-1.595c1.3-1.36 2.465-3.115 2.465-4.922 0-1.238-.492-2.425-1.367-3.3S8.238 1.167 7 1.167zm0 12.25l-.324.485-.002-.001-.004-.003-.013-.01-.048-.033-.176-.125-.617-.47a18.34 18.34 0 0 1-1.865-1.705c-1.336-1.4-2.785-3.448-2.785-5.724 0-1.547.615-3.03 1.7-4.125S5.453 0 7 0s3.03.615 4.125 1.7a5.83 5.83 0 0 1 1.708 4.125c0 2.276-1.45 4.314-2.785 5.724-.68.718-1.358 1.3-1.865 1.705l-.617.47-.176.125-.048.033-.013.01-.004.003-.001.001s-.001 0-.324-.485zm0 0l.324.485c-.196.13-.452.13-.647 0L7 13.417zm0-8.75c-.644 0-1.167.522-1.167 1.167S6.356 7 7 7s1.167-.522 1.167-1.167S7.644 4.667 7 4.667zM4.667 5.833C4.667 4.545 5.7 3.5 7 3.5s2.333 1.045 2.333 2.333S8.3 8.167 7 8.167 4.667 7.122 4.667 5.833z"/></svg>