<svg xmlns="http://www.w3.org/2000/svg" width="14" height="14" fill="none"  xmlns:v="https://vecta.io/nano"><g clip-path="url(#A)"><path d="M11.667 13.358h-.175c-1.867-.233-3.733-.875-5.308-1.867a12.27 12.27 0 0 1-3.675-3.675C1.458 6.242.817 4.375.642 2.508c0-.467.117-.933.408-1.283A1.8 1.8 0 0 1 2.217.583h1.925c.875 0 1.633.642 1.75 1.517.058.525.175 1.05.35 1.517.233.642.058 1.342-.408 1.867l-.408.408c.7 1.05 1.575 1.983 2.683 2.683l.408-.408c.467-.467 1.225-.642 1.867-.408a6.39 6.39 0 0 0 1.517.35c.875.117 1.517.875 1.517 1.75v1.75c0 .467-.175.933-.525 1.225s-.758.525-1.225.525zM4.142 1.75h-1.75c-.175 0-.35.117-.467.233-.058.117-.117.233-.117.408.175 1.692.758 3.325 1.692 4.783.875 1.342 1.983 2.508 3.325 3.325 1.458.933 3.092 1.517 4.783 1.692.233 0 .35-.058.467-.175a.53.53 0 0 0 .175-.408v-1.75c0-.292-.233-.525-.525-.583-.583-.058-1.167-.233-1.75-.467-.233-.058-.467-.058-.642.117l-.758.758a.62.62 0 0 1-.7.117 9.57 9.57 0 0 1-3.733-3.733c-.058-.233 0-.525.175-.7l.758-.758a.68.68 0 0 0 .117-.583c-.233-.583-.35-1.167-.467-1.75 0-.292-.292-.525-.583-.525zm6.942 4.083c-.292 0-.525-.175-.583-.467-.175-.933-.933-1.633-1.867-1.867-.292-.058-.525-.35-.467-.7.058-.292.35-.525.7-.467 1.4.292 2.508 1.342 2.742 2.742.058.292-.117.642-.467.7 0 0 0 .058-.058.058zm2.333-.058c-.292 0-.525-.233-.583-.525-.233-2.158-1.925-3.85-4.142-4.142-.292-.058-.525-.35-.525-.642s.35-.525.642-.525c2.742.292 4.842 2.392 5.133 5.133.058.292-.175.583-.525.642.058.058 0 .058 0 .058z" fill="#fff"/></g><defs><clipPath id="A"><path fill="#fff" d="M0 0h14v14H0z"/></clipPath></defs></svg>