<svg xmlns="http://www.w3.org/2000/svg" width="8" height="8" fill="#f2994a"  xmlns:v="https://vecta.io/nano"><path fill-rule="evenodd" d="M4 .333c.127 0 .243.072.3.186l.953 1.93 2.13.31c.126.018.23.106.27.227s.006.253-.085.342l-1.54 1.5.364 2.12c.02.125-.03.25-.133.326s-.24.084-.35.025L4 6.3 2.095 7.302c-.112.06-.248.05-.35-.025s-.154-.2-.133-.326l.364-2.12-1.54-1.5c-.09-.09-.124-.22-.085-.342s.143-.21.27-.227l2.13-.31L3.7.52c.056-.114.172-.186.3-.186zM4 1.42L3.27 2.9c-.05.098-.142.166-.25.182l-1.635.24 1.183 1.152c.08.077.115.187.096.295l-.28 1.628 1.462-.77c.097-.05.213-.05.3 0l1.462.77-.28-1.628c-.02-.108.017-.22.096-.295l1.183-1.152-1.635-.24C4.873 3.067 4.78 3 4.73 2.9L4 1.42z"/><path d="M2.333 5L1 3l2-.333L4 1l1 1.667 2 .667-1.333 1.333L6 7 4 6 2 7l.333-2z"/></svg>