<svg xmlns="http://www.w3.org/2000/svg" width="14" height="14" fill="#fff"  fill-rule="evenodd" xmlns:v="https://vecta.io/nano"><path d="M2.604 9.02a2.92 2.92 0 0 1 2.062-.854h4.667c.774 0 1.515.307 2.062.854a2.92 2.92 0 0 1 .854 2.062v1.167a.58.58 0 1 1-1.166 0v-1.167a1.75 1.75 0 0 0-1.75-1.75H4.667a1.75 1.75 0 0 0-1.75 1.75v1.167a.58.58 0 1 1-1.166 0v-1.167c0-.774.307-1.515.854-2.062zM7 2.333a1.75 1.75 0 1 0 0 3.5 1.75 1.75 0 1 0 0-3.5zm-2.917 1.75A2.92 2.92 0 0 1 7 1.166a2.92 2.92 0 0 1 2.917 2.917A2.92 2.92 0 0 1 7 7a2.92 2.92 0 0 1-2.917-2.917z"/></svg>