<svg xmlns="http://www.w3.org/2000/svg" width="153" height="175" fill="none"  xmlns:v="https://vecta.io/nano"><path d="M37.97 34.875c0 1.73-.323 3.22-.97 4.47a9.7 9.7 0 0 1-2.531 3.187c-1.063.875-2.292 1.594-3.688 2.156a26.48 26.48 0 0 1-4.312 1.281c-1.5.312-3.01.52-4.53.625l-4.22.156c-1.292 0-2.636-.052-4.03-.156-1.375-.083-2.75-.24-4.125-.47a38.18 38.18 0 0 1-4.062-.906 24.15 24.15 0 0 1-3.781-1.469L1.656 3.5c1.167-.48 2.406-.906 3.72-1.28 1.313-.396 2.646-.72 4-.97a40.38 40.38 0 0 1 4.094-.594c1.354-.146 2.667-.22 3.937-.22a36 36 0 0 1 4.469.281c1.52.188 2.98.5 4.375.938a18.83 18.83 0 0 1 3.906 1.719c1.208.688 2.26 1.542 3.156 2.563.917 1.02 1.625 2.208 2.125 3.563.52 1.354.78 2.917.78 4.688a10.51 10.51 0 0 1-.5 3.281 9.11 9.11 0 0 1-1.438 2.75c-.625.812-1.385 1.5-2.28 2.094-.896.563-1.906.98-3.03 1.25a13.29 13.29 0 0 1 3.687 1.563c1.125.688 2.073 1.52 2.844 2.5a10.67 10.67 0 0 1 1.813 3.313c.438 1.23.656 2.542.656 3.938zM22.094 17.063c0-.604-.125-1.115-.375-1.53-.25-.437-.563-.792-.938-1.062-.354-.27-.75-.47-1.187-.594-.417-.125-.792-.187-1.125-.187-.417 0-.823.063-1.22.188s-.78.27-1.156.438l-.188 6.938c.48 0 1.073-.042 1.78-.125a7.49 7.49 0 0 0 2.031-.531c.667-.292 1.23-.708 1.687-1.25.458-.563.688-1.323.688-2.28zM17.656 27.25c-.604 0-1.187.063-1.75.188l-.125 7.125.906.188c.313.042.615.063.906.063.437 0 .917-.042 1.437-.125.52-.104 1.01-.292 1.47-.562.458-.292.833-.677 1.125-1.156.313-.48.47-1.115.47-1.906s-.156-1.437-.47-1.937c-.292-.5-.656-.885-1.094-1.156a3.58 3.58 0 0 0-1.437-.563c-.52-.104-1-.156-1.438-.156zm56.25-6.5a39.75 39.75 0 0 1-.375 5.438 129.33 129.33 0 0 0-10.625 1.125l-10.562 1.5c.542 1.5 1.385 2.698 2.53 3.594 1.167.896 2.552 1.344 4.156 1.344.833 0 1.74-.156 2.72-.47 1-.312 2-.698 2.97-1.156a36.13 36.13 0 0 0 2.812-1.531l2.313-1.47-1.5 14.188c-.813.625-1.698 1.156-2.656 1.594-.937.438-1.917.792-2.937 1.063a22.51 22.51 0 0 1-3.094.594 25.69 25.69 0 0 1-3.062.188c-2.063 0-3.948-.28-5.656-.844s-3.26-1.344-4.656-2.344c-1.375-1.02-2.583-2.22-3.625-3.594s-1.906-2.875-2.594-4.5-1.208-3.344-1.562-5.156a28.61 28.61 0 0 1-.531-5.5A32.26 32.26 0 0 1 38.5 19a29.7 29.7 0 0 1 1.594-5.594c.73-1.792 1.635-3.448 2.72-4.97 1.104-1.542 2.385-2.885 3.844-4.03s3.104-2.042 4.938-2.687C53.448 1.073 55.5.75 57.72.75c1.854 0 3.542.26 5.062.78 1.542.5 2.906 1.208 4.094 2.125A13.9 13.9 0 0 1 70 6.875 17.73 17.73 0 0 1 72.188 11a22.79 22.79 0 0 1 1.281 4.719c.292 1.646.437 3.323.437 5.03zm-12.5-1.625c0-.583-.062-1.177-.187-1.78-.125-.625-.333-1.188-.625-1.688-.27-.5-.636-.906-1.094-1.22-.458-.333-1.03-.5-1.72-.5-.833 0-1.573.23-2.22.688-.625.438-1.167 1-1.625 1.688a9.86 9.86 0 0 0-1.125 2.188c-.292.792-.5 1.52-.656 2.188l9.25-.875v-.687zM108 30c0 2.854-.5 5.323-1.5 7.406-.98 2.063-2.333 3.77-4.062 5.125-1.71 1.333-3.72 2.323-6.032 2.97-2.292.625-4.76.938-7.406.938-1.02 0-2.146-.135-3.375-.406l-3.687-1-3.625-1.312a85.99 85.99 0 0 1-3.062-1.344l1.375-12.25c1.77 1.063 3.73 1.875 5.875 2.438 2.167.542 4.292.813 6.375.813l1.438-.03c.563-.042 1.094-.136 1.594-.28.52-.167.958-.406 1.313-.72s.53-.76.53-1.344c0-.396-.125-.73-.375-1-.25-.292-.573-.52-.97-.687-.396-.187-.844-.323-1.344-.406a12.54 12.54 0 0 0-1.469-.219l-1.344-.062h-1c-1.792 0-3.427-.28-4.906-.844-1.458-.562-2.72-1.354-3.78-2.375-1.042-1.042-1.854-2.292-2.437-3.75-.583-1.48-.875-3.114-.875-4.906 0-2.458.5-4.656 1.47-6.594 1-1.958 2.323-3.615 3.97-4.97 1.667-1.375 3.573-2.427 5.72-3.156A20.55 20.55 0 0 1 93.063.938l3.156.125a27.68 27.68 0 0 1 3.219.375 30.28 30.28 0 0 1 3.156.719c1.02.292 1.99.656 2.906 1.094l-1.188 12.688c-1.416-.48-2.906-.875-4.468-1.187-1.542-.333-3.052-.5-4.53-.5l-1.062.03c-.417 0-.865.03-1.344.094a11.54 11.54 0 0 0-1.406.219c-.48.104-.906.25-1.28.437-.375.167-.677.396-.906.688s-.333.635-.312 1.03c.02.458.188.813.5 1.063.333.25.75.438 1.25.563.52.104 1.083.156 1.688.156l1.844-.03 1.688-.094c.52-.042.948-.052 1.28-.03 1.667.104 3.167.458 4.5 1.063s2.458 1.406 3.375 2.406c.937 1 1.646 2.198 2.125 3.594.5 1.375.75 2.896.75 4.563zm34.375-28.062l-.313 13.25-9.312.375-1.125 29-13.187.688-1.188-29-9.312.5.374-14.75 34.063-.062zM38 145.188c0 2.02-.302 3.812-.906 5.374s-1.438 2.938-2.5 4.126c-1.042 1.166-2.27 2.156-3.688 2.968-1.417.792-2.937 1.448-4.562 1.97-1.604.5-3.27.875-5 1.125a42.9 42.9 0 0 1-5.094.375v13.313H1.688V167.5l.063-13.406.063-6.97.03-7.625.156-7.688c2.667-.79 5.333-1.385 8-1.78a56.11 56.11 0 0 1 8.25-.593 28.84 28.84 0 0 1 4.813.406 22.27 22.27 0 0 1 4.594 1.218 19.51 19.51 0 0 1 4.094 2.126 13.66 13.66 0 0 1 3.281 3c.917 1.166 1.636 2.5 2.156 4 .542 1.5.813 3.166.813 5zm-13.875 1.062c0-1.354-.417-2.406-1.25-3.156-.812-.77-1.875-1.156-3.187-1.156a8.06 8.06 0 0 0-1.375.124c-.458.063-.896.146-1.312.25l-.375 9.126c.292.04.573.062.844.062h.844a6.26 6.26 0 0 0 2.156-.375c.708-.25 1.333-.604 1.875-1.063a5.45 5.45 0 0 0 1.281-1.656c.333-.646.5-1.364.5-2.156zm43.063 11.188l-1.312 13.874-26.312 2.063 1-44.625h16.25L54.5 157.438h12.688zm40.875 13.874l-15.5 2-1.875-7.062h-7.125L82 173.312l-15.937-1.562L78.5 130.125l17.375-.875 12.187 42.062zm-18.5-14.624l-2.375-10.876-2.312 10.876h4.688zm57.938 1.5l-.094 7-.218 6.937-18-.313c.624-3.687 1.166-7.364 1.624-11.03a90.22 90.22 0 0 0 .688-11.156 42.26 42.26 0 0 0-.031-1.313 43.07 43.07 0 0 0-.125-2.031c-.063-.77-.156-1.552-.282-2.343-.104-.813-.26-1.553-.468-2.22-.188-.667-.427-1.21-.72-1.625-.27-.438-.604-.656-1-.656-.708 0-1.313.208-1.813.624-.48.417-.885.96-1.218 1.626-.313.645-.563 1.374-.75 2.187s-.334 1.625-.438 2.437c-.083.813-.146 1.584-.187 2.313l-.03 1.75-.5 22-15.938.687 1.188-21.937.937-21.937 14.75-.75-.125 5a21 21 0 0 1 1.875-2c.687-.626 1.417-1.157 2.187-1.594.77-.46 1.584-.813 2.438-1.063.875-.27 1.792-.406 2.75-.406 1.77 0 3.323.292 4.656.875s2.48 1.375 3.438 2.375 1.76 2.187 2.406 3.563a23.76 23.76 0 0 1 1.562 4.343 38.49 38.49 0 0 1 .907 4.844 58.04 58.04 0 0 1 .406 4.937 92.62 92.62 0 0 1 .125 4.719v4.157z" fill="#fff"/><path d="M34.688 65.938l-.312 13.25-9.312.375-1.125 29-13.187.688-1.187-29-9.312.5L.625 66l34.063-.062zm39.78 20.125c0 1.896-.22 3.73-.656 5.5-.437 1.75-1.073 3.396-1.906 4.938a20.1 20.1 0 0 1-3 4.25c-1.167 1.27-2.49 2.365-3.97 3.28-1.458.917-3.052 1.636-4.78 2.157-1.73.5-3.562.75-5.5.75-1.875 0-3.667-.24-5.375-.72-1.687-.48-3.27-1.146-4.75-2a20.29 20.29 0 0 1-4.031-3.125c-1.187-1.23-2.208-2.584-3.062-4.063-.833-1.5-1.5-3.104-1.97-4.812-.458-1.708-.688-3.5-.688-5.344 0-1.812.22-3.583.656-5.312a21.98 21.98 0 0 1 1.875-4.937c.833-1.542 1.833-2.958 3-4.25a19.88 19.88 0 0 1 3.906-3.344c1.458-.937 3.03-1.667 4.72-2.187s3.47-.78 5.344-.78c3.02 0 5.77.47 8.25 1.406 2.5.937 4.625 2.28 6.375 4.03 1.77 1.73 3.136 3.833 4.094 6.313.98 2.458 1.47 5.208 1.47 8.25zm-13.875.813a8.34 8.34 0 0 0-.406-2.594c-.25-.854-.625-1.604-1.125-2.25a5.55 5.55 0 0 0-1.875-1.594c-.73-.417-1.573-.625-2.53-.625-.98 0-1.854.177-2.625.53a6.07 6.07 0 0 0-2 1.469c-.542.604-.958 1.323-1.25 2.156a7.62 7.62 0 0 0-.437 2.594c0 .875.125 1.75.375 2.625s.625 1.667 1.125 2.375a6.04 6.04 0 0 0 1.844 1.719c.75.438 1.615.656 2.594.656s1.854-.187 2.625-.562c.792-.396 1.458-.917 2-1.562.542-.667.958-1.427 1.25-2.28a8.16 8.16 0 0 0 .438-2.656zM113.906 66c-.937 7.333-1.74 14.635-2.406 21.906l-1.906 21.906-12.813.938.563-4.812c-.417.48-.906.895-1.47 1.25-.542.354-1.125.645-1.75.874a11.86 11.86 0 0 1-1.937.469 11.94 11.94 0 0 1-1.906.094c-1.417-.02-2.75-.292-4-.813a13.93 13.93 0 0 1-3.437-2.124 17.42 17.42 0 0 1-2.813-3.094 22.82 22.82 0 0 1-2.125-3.719c-.562-1.312-1-2.646-1.312-4-.292-1.354-.438-2.667-.438-3.937a186.23 186.23 0 0 1 .094-5.812 118.5 118.5 0 0 1 .406-6.062c.188-2.02.427-4.02.72-6a63.78 63.78 0 0 1 1.156-5.687l7.656.344a134.31 134.31 0 0 0 7.656.094l-1.438 5.47c-.458 1.813-.875 3.646-1.25 5.5a71.15 71.15 0 0 0-.906 5.531 45.81 45.81 0 0 0-.344 5.625c0 .438.02 1.063.063 1.875a15.52 15.52 0 0 0 .312 2.406c.188.792.458 1.49.813 2.094.375.583.896.875 1.562.875.792 0 1.5-.333 2.125-1 .625-.687 1.177-1.604 1.656-2.75s.885-2.47 1.22-3.97a51.96 51.96 0 0 0 .875-4.688c.25-1.646.448-3.302.594-4.97a106.12 106.12 0 0 0 .313-4.687c.083-1.48.135-2.802.156-3.97l.062-2.72a23.23 23.23 0 0 0-.031-1.219c-.02-.396-.052-.802-.094-1.22l4.03.094 4.032.03h3.125c1.062-.02 2.125-.062 3.187-.125zm38.5 13.875c0 1.625-.146 3.104-.437 4.438a12.97 12.97 0 0 1-1.313 3.625c-.604 1.104-1.385 2.125-2.344 3.063s-2.114 1.833-3.468 2.688l7.437 13.25-14.062 2.75-4.813-13.313-3.875.125-.562 13H115.53l.28-14.187.344-14.187.125-7.125a207.92 207.92 0 0 1 .25-7.125c1.46-.542 2.896-1 4.313-1.344a38.1 38.1 0 0 1 4.25-.812 43.1 43.1 0 0 1 4.344-.406c1.48-.083 2.99-.125 4.53-.125a23.66 23.66 0 0 1 6.875 1c2.23.646 4.198 1.625 5.906 2.938s3.073 2.948 4.094 4.906c1.04 1.958 1.562 4.24 1.562 6.844zm-14 1c0-.875-.125-1.677-.375-2.406-.23-.73-.583-1.354-1.062-1.875a4.49 4.49 0 0 0-1.75-1.25c-.688-.313-1.5-.47-2.438-.47-.416 0-.823.03-1.22.094-.395.042-.78.114-1.156.22l-.5 11.625h.75c.896 0 1.802-.115 2.72-.344.937-.23 1.77-.583 2.5-1.063a5.68 5.68 0 0 0 1.813-1.844c.48-.75.718-1.646.718-2.687z" fill="#ec1f46"/></svg>